<svg width="24" height="24" viewBox="0 0 24 24" fill="none" xmlns="http://www.w3.org/2000/svg">
<path d="M3 5C3 4.05719 3 3.58579 3.29289 3.29289C3.58579 3 4.05719 3 5 3H8C8.94281 3 9.41421 3 9.70711 3.29289C10 3.58579 10 4.05719 10 5V8C10 8.94281 10 9.41421 9.70711 9.70711C9.41421 10 8.94281 10 8 10H5C4.05719 10 3.58579 10 3.29289 9.70711C3 9.41421 3 8.94281 3 8V5Z" stroke="white" stroke-width="1.5" stroke-miterlimit="10"/>
<path d="M3 16C3 15.0572 3 14.5858 3.29289 14.2929C3.58579 14 4.05719 14 5 14H8C8.94281 14 9.41421 14 9.70711 14.2929C10 14.5858 10 15.0572 10 16V19C10 19.9428 10 20.4142 9.70711 20.7071C9.41421 21 8.94281 21 8 21H5C4.05719 21 3.58579 21 3.29289 20.7071C3 20.4142 3 19.9428 3 19V16Z" stroke="white" stroke-width="1.5" stroke-miterlimit="10"/>
<path d="M14 5C14 4.05719 14 3.58579 14.2929 3.29289C14.5858 3 15.0572 3 16 3H19C19.9428 3 20.4142 3 20.7071 3.29289C21 3.58579 21 4.05719 21 5V8C21 8.94281 21 9.41421 20.7071 9.70711C20.4142 10 19.9428 10 19 10H16C15.0572 10 14.5858 10 14.2929 9.70711C14 9.41421 14 8.94281 14 8V5Z" stroke="white" stroke-width="1.5" stroke-miterlimit="10"/>
<path d="M14 16C14 15.0572 14 14.5858 14.2929 14.2929C14.5858 14 15.0572 14 16 14H19C19.9428 14 20.4142 14 20.7071 14.2929C21 14.5858 21 15.0572 21 16V19C21 19.9428 21 20.4142 20.7071 20.7071C20.4142 21 19.9428 21 19 21H16C15.0572 21 14.5858 21 14.2929 20.7071C14 20.4142 14 19.9428 14 19V16Z" stroke="white" stroke-width="1.5" stroke-miterlimit="10"/>
</svg>
