<svg width="24" height="24" viewBox="0 0 24 24" fill="none" xmlns="http://www.w3.org/2000/svg">
<path d="M22 15C22 20 20 22 15 22H9C4 22 2 20 2 15V9C2 4 4 2 9 2H15C20 2 22 4 22 9V15ZM22 15L18.7699 13.1858C18.0373 12.7743 17.1257 12.8646 16.488 13.4118L13.3899 16.0705C12.6099 16.7405 11.3499 16.7405 10.5699 16.0705L10.2399 15.7805C9.52992 15.1705 8.38992 15.1105 7.59992 15.6405L2.66992 18.9505M11 8C11 9.10457 10.1046 10 9 10C7.89543 10 7 9.10457 7 8C7 6.89543 7.89543 6 9 6C10.1046 6 11 6.89543 11 8Z" stroke="white" stroke-width="1.5" stroke-linecap="round" stroke-linejoin="round"/>
</svg>
