<svg width="24" height="24" viewBox="0 0 24 24" fill="none" xmlns="http://www.w3.org/2000/svg">
<path d="M8.409 4.8V3M12 4.8V3M15.6 4.8V3M19.2 8.4H21M19.2 12H21M19.2 15.6H21M15.6 19.2V21M12.009 19.2V21M8.409 19.2V21M3 8.4H4.8M3 12H4.8M3 15.6H4.8M9.84 19.2H14.16C17.76 19.2 19.2 17.76 19.2 14.16V9.84C19.2 6.24 17.76 4.8 14.16 4.8H9.84C6.24 4.8 4.8 6.24 4.8 9.84V14.16C4.8 17.76 6.24 19.2 9.84 19.2ZM10.65 16.5H13.35C15.6 16.5 16.5 15.6 16.5 13.35V10.65C16.5 8.4 15.6 7.5 13.35 7.5H10.65C8.4 7.5 7.5 8.4 7.5 10.65V13.35C7.5 15.6 8.4 16.5 10.65 16.5Z" stroke="white" stroke-width="1.5" stroke-linecap="round" stroke-linejoin="round"/>
</svg>
